<?xml version="1.0" encoding="utf-8"?>
<!-- Generated by IcoMoon.io -->
<!DOCTYPE svg PUBLIC "-//W3C//DTD SVG 1.1//EN" "http://www.w3.org/Graphics/SVG/1.1/DTD/svg11.dtd">
<svg version="1.1" xmlns="http://www.w3.org/2000/svg" xmlns:xlink="http://www.w3.org/1999/xlink" width="512" height="512" viewBox="0 0 512 512">
<g>
</g>
	<path d="M512 192h-192l71.765-71.765c-36.265-36.263-84.48-56.235-135.765-56.235-51.285 0-99.5 19.972-135.765 56.235-36.263 36.265-56.235 84.48-56.235 135.765 0 51.285 19.972 99.5 56.235 135.765 36.265 36.263 84.48 56.235 135.765 56.235 51.285 0 99.5-19.972 135.764-56.236 3.028-3.027 5.93-6.146 8.728-9.334l48.16 42.141c-46.923 53.583-115.832 87.429-192.652 87.429-141.385 0-256-114.615-256-256 0-141.385 114.615-256 256-256 70.693 0 134.684 28.663 181.008 74.992l74.992-74.992v192z" fill="#000000" />
</svg>
